<?xml version="1.0" encoding="utf-8"?>
<!-- Generator: Adobe Illustrator 27.5.0, SVG Export Plug-In . SVG Version: 6.00 Build 0)  -->
<svg version="1.1" xmlns="http://www.w3.org/2000/svg" xmlns:xlink="http://www.w3.org/1999/xlink" x="0px" y="0px"
	 viewBox="0 0 750 500" style="enable-background:new 0 0 750 500;" xml:space="preserve">
<g id="BACKGROUND">
	<rect style="fill:#10151b00;" width="750" height="500"/>
</g>
<g id="OBJECTS">
	<g>
		<ellipse style="fill:#DEC5AB;" cx="375" cy="401.583" rx="329" ry="12.917"/>
		<g>
			<g>
				<g>
					<path style="fill:#041801;" d="M421.652,307.833h-10.008h-8.52h-20.757h-10.008h-8.52c-15.058,0-27.266,20.564-27.266,45.931
						h8.52c0,25.367,12.207,45.931,27.266,45.931h39.284c15.058,0,27.266-20.564,27.266-45.931h10.008
						C448.917,328.397,436.71,307.833,421.652,307.833z"/>
					<path style="fill:#041801;" d="M338.301,307.833h-10.008h-8.52h-20.757h-10.008h-8.52c-15.058,0-27.266,20.564-27.266,45.931
						h8.52c0,25.367,12.207,45.931,27.266,45.931h39.285c15.058,0,27.265-20.564,27.265-45.931h10.008
						C365.566,328.397,353.359,307.833,338.301,307.833z"/>
				</g>
				<g>
					<g>
						<path style="fill:#041801;" d="M600.371,307.833h-39.285c15.058,0,27.266,20.564,27.266,45.931h39.285
							C627.636,328.397,615.429,307.833,600.371,307.833z"/>
						<g>
							<path style="fill:#0C2109;" d="M551.078,307.833h39.285c15.058,0,27.266,20.564,27.266,45.931
								c0,25.367-12.207,45.931-27.266,45.931h-39.285c-15.058,0-27.266-20.564-27.266-45.931
								C523.813,328.397,536.02,307.833,551.078,307.833z"/>
							<path style="fill:none;stroke:#354232;stroke-miterlimit:10;" d="M570.721,307.833c-15.058,0-27.266,20.564-27.266,45.931
								c0,25.367,12.207,45.931,27.266,45.931"/>
							<ellipse style="fill:#354232;" cx="591.103" cy="353.764" rx="24.542" ry="42.628"/>
							<ellipse style="fill:#DEC5AB;" cx="593.69" cy="353.764" rx="13.092" ry="27.234"/>
							<ellipse style="fill:#F8E4CF;" cx="594.713" cy="353.764" rx="9.343" ry="21.562"/>
							<ellipse style="fill:#AA8F77;" cx="595.219" cy="353.764" rx="3.921" ry="10.163"/>
						</g>
						<path style="fill:#2A3327;" d="M542.558,307.833h39.285c-15.058,0-27.266,20.564-27.266,45.931h-39.285
							C515.293,328.397,527.5,307.833,542.558,307.833z"/>
					</g>
					<g>
						<path style="fill:#041801;" d="M517.02,307.833h-39.285c15.058,0,27.266,20.564,27.266,45.931h39.285
							C544.285,328.397,532.078,307.833,517.02,307.833z"/>
						<g>
							<path style="fill:#0C2109;" d="M467.727,307.833h39.284c15.058,0,27.266,20.564,27.266,45.931
								c0,25.367-12.207,45.931-27.266,45.931h-39.284c-15.058,0-27.266-20.564-27.266-45.931
								C440.462,328.397,452.669,307.833,467.727,307.833z"/>
							<path style="fill:none;stroke:#354232;stroke-miterlimit:10;" d="M487.37,307.833c-15.058,0-27.266,20.564-27.266,45.931
								c0,25.367,12.207,45.931,27.266,45.931"/>
							<ellipse style="fill:#354232;" cx="507.752" cy="353.764" rx="24.542" ry="42.628"/>
							<ellipse style="fill:#DEC5AB;" cx="510.339" cy="353.764" rx="13.092" ry="27.234"/>
							<ellipse style="fill:#F8E4CF;" cx="511.362" cy="353.764" rx="9.343" ry="21.562"/>
							<ellipse style="fill:#AA8F77;" cx="511.868" cy="353.764" rx="3.921" ry="10.163"/>
						</g>
						<path style="fill:#2A3327;" d="M459.207,307.833h39.285c-15.058,0-27.266,20.564-27.266,45.931h-39.284
							C431.942,328.397,444.149,307.833,459.207,307.833z"/>
					</g>
				</g>
				<g>
					<path style="fill:#0C2109;" d="M174.484,311.667c0,1.105,0.842,2,1.881,2h495.139c1.039,0,1.881-0.895,1.881-2V304
						c0-1.105-0.842-2-1.881-2H176.366c-1.039,0-1.881,0.895-1.881,2V311.667z"/>
					<g>
						<g>
							<path style="fill:#DEC5AB;" d="M682.151,303.5c0,1.105-0.895,2-2,2H167.719c-1.105,0-2-0.895-2-2v-216c0-1.105,0.895-2,2-2
								h512.432c1.105,0,2,0.895,2,2V303.5z"/>
							<path style="fill:#F8E4CF;" d="M385.399,303.18c0,1.104-0.895,2-2,2h-215.68c-1.105,0-2-0.896-2-2V87.5c0-1.105,0.895-2,2-2
								h215.68c1.105,0,2,0.895,2,2V303.18z"/>
							<rect x="165.719" y="94.914" style="fill:#DEC5AB;" width="219.68" height="200.851"/>
							<rect x="385.399" y="94.914" style="fill:#D1B093;" width="296.752" height="200.851"/>
							<g>
								<line style="fill:none;stroke:#AA8F77;stroke-miterlimit:10;" x1="165.719" y1="287.5" x2="682.151" y2="287.5"/>
								<line style="fill:none;stroke:#AA8F77;stroke-miterlimit:10;" x1="165.719" y1="280.833" x2="682.151" y2="280.833"/>
								<line style="fill:none;stroke:#AA8F77;stroke-miterlimit:10;" x1="165.719" y1="274.167" x2="682.151" y2="274.167"/>
								<line style="fill:none;stroke:#AA8F77;stroke-miterlimit:10;" x1="165.719" y1="267.5" x2="682.151" y2="267.5"/>
								<line style="fill:none;stroke:#AA8F77;stroke-miterlimit:10;" x1="165.719" y1="260.833" x2="682.151" y2="260.833"/>
								<line style="fill:none;stroke:#AA8F77;stroke-miterlimit:10;" x1="165.719" y1="254.167" x2="682.151" y2="254.167"/>
							</g>
							<g>
								<line style="fill:none;stroke:#AA8F77;stroke-miterlimit:10;" x1="165.719" y1="135.5" x2="682.151" y2="135.5"/>
								<line style="fill:none;stroke:#AA8F77;stroke-miterlimit:10;" x1="165.719" y1="128.833" x2="682.151" y2="128.833"/>
								<line style="fill:none;stroke:#AA8F77;stroke-miterlimit:10;" x1="165.719" y1="122.167" x2="682.151" y2="122.167"/>
								<line style="fill:none;stroke:#AA8F77;stroke-miterlimit:10;" x1="165.719" y1="115.5" x2="682.151" y2="115.5"/>
								<line style="fill:none;stroke:#AA8F77;stroke-miterlimit:10;" x1="165.719" y1="108.833" x2="682.151" y2="108.833"/>
								<line style="fill:none;stroke:#AA8F77;stroke-miterlimit:10;" x1="165.719" y1="102.167" x2="682.151" y2="102.167"/>
							</g>
						</g>
					</g>
				</g>
				<g>
					<rect x="403.61" y="318.064" style="fill:#0C2109;" width="9.776" height="39.417"/>
					<rect x="448.518" y="318.064" style="fill:#0C2109;" width="9.776" height="39.417"/>
					<path style="fill:#475643;" d="M502.019,341.601c0,1.105-0.895,2-2,2h-112.62c-1.105,0-2-0.895-2-2v-3.434c0-1.105,0.895-2,2-2
						h112.62c1.105,0,2,0.895,2,2V341.601z"/>
					<path style="fill:#475643;" d="M502.019,359.198c0,1.105-0.895,2-2,2h-112.62c-1.105,0-2-0.895-2-2v-3.434c0-1.105,0.895-2,2-2
						h112.62c1.105,0,2,0.895,2,2V359.198z"/>
				</g>
				<g>
					<path style="fill:#0C2109;" d="M686.052,330.167c0,1.105,0.895,2,2,2h6c1.104,0,2-0.895,2-2V307.5c0-1.105-0.896-2-2-2h-6
						c-1.105,0-2,0.895-2,2V330.167z"/>
					<path style="fill:#354232;" d="M690.719,322.833c0,1.105-0.895,2-2,2H164.052c-1.105,0-2-0.895-2-2v-13c0-1.105,0.895-2,2-2
						h524.667c1.105,0,2,0.895,2,2V322.833z"/>
					<g>
						<path style="fill:#BD3E00;" d="M632.076,318.064c0,0.701-0.568,1.269-1.269,1.269h-3.461c-0.701,0-1.269-0.568-1.269-1.269
							v-3.461c0-0.701,0.568-1.269,1.269-1.269h3.461c0.701,0,1.269,0.568,1.269,1.269V318.064z"/>
						<path style="fill:#BD3E00;" d="M661.15,318.064c0,0.701-0.568,1.269-1.269,1.269h-3.461c-0.701,0-1.269-0.568-1.269-1.269
							v-3.461c0-0.701,0.568-1.269,1.269-1.269h3.461c0.701,0,1.269,0.568,1.269,1.269V318.064z"/>
					</g>
					<g>
						<path style="fill:#BD3E00;" d="M409.61,318.064c0,0.701-0.568,1.269-1.269,1.269h-3.461c-0.701,0-1.269-0.568-1.269-1.269
							v-3.461c0-0.701,0.568-1.269,1.269-1.269h3.461c0.701,0,1.269,0.568,1.269,1.269V318.064z"/>
						<path style="fill:#BD3E00;" d="M438.684,318.064c0,0.701-0.568,1.269-1.269,1.269h-3.461c-0.701,0-1.269-0.568-1.269-1.269
							v-3.461c0-0.701,0.568-1.269,1.269-1.269h3.461c0.701,0,1.269,0.568,1.269,1.269V318.064z"/>
					</g>
				</g>
			</g>
			<g>
				<g>
					<path style="fill:#041801;" d="M350.87,287.639h-47.921c18.369,0,33.259,25.085,33.259,56.028h47.921
						C384.129,312.723,369.238,287.639,350.87,287.639z"/>
					<g>
						<path style="fill:#041801;" d="M290.741,287.639h47.921c18.369,0,33.259,25.085,33.259,56.028
							c0,30.943-14.891,56.028-33.259,56.028h-47.921c-18.369,0-33.26-25.085-33.26-56.028
							C257.482,312.723,272.372,287.639,290.741,287.639z"/>
						<path style="fill:none;stroke:#354232;stroke-miterlimit:10;" d="M314.702,287.639c-18.369,0-33.259,25.085-33.259,56.028
							c0,30.943,14.891,56.028,33.259,56.028"/>
						<ellipse style="fill:#354232;" cx="339.565" cy="343.667" rx="29.937" ry="51.999"/>
						<ellipse style="fill:#DEC5AB;" cx="342.721" cy="343.667" rx="15.97" ry="33.222"/>
						<ellipse style="fill:#F8E4CF;" cx="343.968" cy="343.667" rx="11.397" ry="26.302"/>
						<path style="fill:#AA8F77;" d="M339.802,343.667c0,6.847,2.142,12.397,4.784,12.397c2.642,0,4.784-5.55,4.784-12.397
							c0-6.847-2.142-12.397-4.784-12.397C341.943,331.27,339.802,336.82,339.802,343.667z"/>
					</g>
				</g>
				<path style="fill:#041801;" d="M185.825,287.639h-12.208h-35.713h-12.208c-18.369,0-33.259,25.084-33.259,56.028
					s14.891,56.028,33.259,56.028h47.921c18.369,0,33.259-25.085,33.259-56.028h12.208
					C219.085,312.723,204.194,287.639,185.825,287.639z"/>
				<g>
					<rect x="71.506" y="311.229" style="fill:#041801;" width="214.895" height="15.2"/>
					<g>
						<path style="fill:#1A4345;" d="M67.837,309.919c0,3.242,1.922,5.765,7.6,5.765c3.407,0,205.985,0,208.605,0
							c2.621,0,4.979-6.552,9.434-12.317s14.152-23.586,42.717-23.586c28.565,0,27.517,1.834,28.565-1.835
							c1.048-3.669,7.338-29.876,7.6-31.186c0.262-1.31,0-90.15,0-100.895c0-10.745-3.407-11.532-10.745-11.532
							c-13.103,0-218.826,0-234.026,0c-9.959,0-17.034,6.552-20.179,13.103s-28.808,70.347-28.808,70.347s-6.024,3.212-8.406,7.224
							C68.536,227.805,67.837,305.377,67.837,309.919z"/>
						<path style="opacity:0.4;fill:#1A4345;" d="M293.477,303.367c4.455-5.766,14.152-23.586,42.717-23.586
							c28.565,0,27.517,1.834,28.565-1.835c1.048-3.669,7.338-29.876,7.6-31.186c0.262-1.31,0-90.15,0-100.895
							c0-10.745-3.407-11.532-10.745-11.532c-5.194,0-36.233,0-79.086,0c-9.958,0-17.034,6.552-20.179,13.103
							c-3.145,6.552-28.808,70.347-28.808,70.347s-6.023,3.212-8.406,7.224c-1.66,2.795-2.359,80.367-2.359,84.91
							c0,3.242,1.922,5.765,7.6,5.765c30.115,0,52.8,0,53.666,0C286.663,315.685,289.022,309.133,293.477,303.367z"/>
						<g>
							<g>
								<line style="fill:none;stroke:#021801;stroke-miterlimit:10;" x1="260.829" y1="150.881" x2="372.365" y2="150.881"/>
								<line style="fill:none;stroke:#021801;stroke-miterlimit:10;" x1="263.414" y1="145.49" x2="372.359" y2="145.49"/>
								<line style="fill:none;stroke:#021801;stroke-miterlimit:10;" x1="340.037" y1="150.881" x2="340.037" y2="279.813"/>
								<polyline style="fill:none;stroke:#021801;stroke-miterlimit:10;" points="244.994,315.685 244.994,222.651 
									257.368,159.145 								"/>
							</g>
						</g>
						<path style="fill:#021801;" d="M333.835,255.671c0,1.158-0.939,2.097-2.096,2.097h-11.755c-1.158,0-2.097-0.939-2.097-2.097
							l0,0c0-1.158,0.939-2.096,2.097-2.096h11.755C332.896,253.575,333.835,254.513,333.835,255.671L333.835,255.671z"/>
						<path style="fill:none;stroke:#021801;stroke-width:2;stroke-miterlimit:10;" d="M368.195,213.251
							c0,1.158-0.939,2.097-2.096,2.097h-17.296c-1.158,0-2.097-0.939-2.097-2.097v-48.744c0-1.158,0.939-2.096,2.097-2.096h17.296
							c1.158,0,2.096,0.939,2.096,2.096V213.251z"/>
					</g>
					<g>
						<path style="fill:#0C2109;" d="M366.069,279.813c-2.936,0-48.482,0-63.158,0c-13.822,0-21.132,10.905-21.936,40.851H56.044
							c-1.158,0-2.097,0.939-2.097,2.097v21.227c0,1.158,0.939,2.096,2.097,2.096h234.812c1.158,0,2.097-0.939,2.097-2.096
							c0,0,2.883-21.227,15.724-35.379c12.841-14.152,28.827-16.772,41.931-16.51c13.103,0.262,16.306,0,17.587,0
							c1.281,0,1.806-2.096,1.806-3.931c0-1.834,0-4.455,0-5.765C370,281.092,369.006,279.813,366.069,279.813z"/>
						<path style="fill:#354232;" d="M220.156,322.76c0-1.158-0.939-2.097-2.096-2.097H56.044c-1.158,0-2.097,0.939-2.097,2.097
							v21.227c0,1.158,0.939,2.096,2.097,2.096H218.06c1.158,0,2.096-0.939,2.096-2.096V322.76z"/>
						<g>
							<path style="fill:#F8E4CF;" d="M140.168,339.845c0,1.271-1.03,2.301-2.301,2.301h-33.936c-1.271,0-2.301-1.03-2.301-2.301
								v-12.942c0-1.271,1.03-2.301,2.301-2.301h33.936c1.271,0,2.301,1.03,2.301,2.301V339.845z"/>
							<g>
								<path style="fill:#BD3E00;" d="M169.65,338.222c0,1.158-0.939,2.096-2.097,2.096h-9.696c-1.158,0-2.097-0.939-2.097-2.096
									v-9.697c0-1.158,0.939-2.096,2.097-2.096h9.696c1.158,0,2.097,0.939,2.097,2.096V338.222z"/>
								<path style="fill:#BD3E00;" d="M185.898,338.222c0,1.158-0.939,2.096-2.097,2.096h-9.697c-1.158,0-2.096-0.939-2.096-2.096
									v-9.697c0-1.158,0.939-2.096,2.096-2.096h9.697c1.158,0,2.097,0.939,2.097,2.096V338.222z"/>
							</g>
							<g>
								<path style="fill:#BD3E00;" d="M81.847,338.222c0,1.158-0.578,2.096-1.292,2.096h-5.974c-0.713,0-1.292-0.939-1.292-2.096
									v-9.697c0-1.158,0.578-2.096,1.292-2.096h5.974c0.713,0,1.292,0.939,1.292,2.096V338.222z"/>
								<path style="fill:#BD3E00;" d="M91.858,338.222c0,1.158-0.578,2.096-1.292,2.096h-5.974c-0.713,0-1.292-0.939-1.292-2.096
									v-9.697c0-1.158,0.578-2.096,1.292-2.096h5.974c0.713,0,1.292,0.939,1.292,2.096V338.222z"/>
							</g>
							
								<ellipse transform="matrix(0.7071 -0.7071 0.7071 0.7071 -174.9503 244.3811)" style="fill:#E99735;" cx="207.519" cy="333.374" rx="8.91" ry="8.91"/>
							<path style="fill:#E99735;" d="M68.631,333.374c0,4.921-2.447,8.91-5.465,8.91s-5.465-3.989-5.465-8.91
								c0-4.921,2.447-8.91,5.465-8.91S68.631,328.453,68.631,333.374z"/>
						</g>
					</g>
					<g>
						<path style="opacity:0.4;fill:#1A4345;" d="M220.156,282.926c0,1.158-0.939,2.096-2.096,2.096H73.603
							c-1.158,0-2.096-0.939-2.096-2.096v-7.338c0-1.158,0.939-2.096,2.096-2.096H218.06c1.158,0,2.096,0.939,2.096,2.096V282.926z"
							/>
						<g>
							<path style="fill:#021801;" d="M184.879,309.133c0,1.158-0.939,2.096-2.097,2.096H93.418c-1.158,0-2.096-0.939-2.096-2.096
								V291.05c0-1.158,0.939-2.097,2.096-2.097h89.365c1.158,0,2.097,0.939,2.097,2.097V309.133z"/>
							<g>
								<g>
									<line style="fill:none;stroke:#1A4345;stroke-miterlimit:10;" x1="91.321" y1="291.706" x2="184.879" y2="291.706"/>
									<line style="fill:none;stroke:#1A4345;stroke-miterlimit:10;" x1="91.321" y1="295.899" x2="184.879" y2="295.899"/>
									<line style="fill:none;stroke:#1A4345;stroke-miterlimit:10;" x1="91.321" y1="300.092" x2="184.879" y2="300.092"/>
									<line style="fill:none;stroke:#1A4345;stroke-miterlimit:10;" x1="91.321" y1="304.285" x2="184.879" y2="304.285"/>
									<line style="fill:none;stroke:#1A4345;stroke-miterlimit:10;" x1="91.321" y1="308.478" x2="184.879" y2="308.478"/>
								</g>
							</g>
						</g>
						<g>
							<circle style="fill:#021801;" cx="204.204" cy="300.616" r="12.055"/>
							<circle style="fill:#E99735;" cx="204.204" cy="300.616" r="9.959"/>
							<circle style="fill:#F8E4CF;" cx="204.204" cy="300.616" r="3.145"/>
						</g>
						<g>
							<ellipse style="fill:#021801;" cx="79.368" cy="300.616" rx="7.338" ry="12.055"/>
							<ellipse style="fill:#E99735;" cx="79.368" cy="300.616" rx="6.062" ry="9.958"/>
							<ellipse style="fill:#F8E4CF;" cx="79.368" cy="300.616" rx="1.914" ry="3.145"/>
						</g>
						<path style="fill:#E99735;" d="M218.264,269.037c0,1.158-0.939,2.097-2.096,2.097h-8.124c-1.158,0-2.097-0.939-2.097-2.097
							v-1.834c0-1.158,0.939-2.097,2.097-2.097h8.124c1.158,0,2.096,0.939,2.096,2.097V269.037z"/>
						<path style="fill:#E99735;" d="M81.847,269.037c0,1.158-0.658,2.097-1.47,2.097H74.68c-0.812,0-1.47-0.939-1.47-2.097v-1.834
							c0-1.158,0.658-2.097,1.47-2.097h5.697c0.812,0,1.47,0.939,1.47,2.097V269.037z"/>
					</g>
					<g>
						<path style="fill:#021801;" d="M323.09,225.01c3.407,0,5.503-2.883,5.503-7.6c0-4.717,0-49.007,0-50.579
							c0-2.883-1.572-4.421-5.503-4.421c-3.931,0-52.413,0-54.248,0s-4.043,0.609-5.428,6.113
							c-1.385,5.503-9.247,47.053-10.296,50.984c-1.048,3.931,2.359,5.503,5.241,5.503C261.243,225.01,323.09,225.01,323.09,225.01z
							"/>
						<path style="fill:#3E736F;" d="M319.571,221.603c3.036,0,4.904-2.569,4.904-6.773c0-4.204,0-43.672,0-45.074
							c0-2.569-1.401-3.94-4.904-3.94c-3.503,0-46.708,0-48.343,0s-3.602,0.543-4.837,5.447s-8.241,41.931-9.175,45.434
							c-0.934,3.503,2.102,4.904,4.671,4.904C264.455,221.603,319.571,221.603,319.571,221.603z"/>
						<g>
							<defs>
								<path id="SVGID_1_" d="M319.571,221.603c3.036,0,4.904-2.569,4.904-6.773c0-4.204,0-43.672,0-45.074
									c0-2.569-1.401-3.94-4.904-3.94c-3.503,0-46.708,0-48.343,0s-3.602,0.543-4.837,5.447s-8.241,41.931-9.175,45.434
									c-0.934,3.503,2.102,4.904,4.671,4.904C264.455,221.603,319.571,221.603,319.571,221.603z"/>
							</defs>
							<clipPath id="SVGID_00000138564304126378986050000001792074686405119652_">
								<use xlink:href="#SVGID_1_"  style="overflow:visible;"/>
							</clipPath>
							<g style="clip-path:url(#SVGID_00000138564304126378986050000001792074686405119652_);">
								
									<line style="fill:none;stroke:#6A9994;stroke-width:8;stroke-miterlimit:10;" x1="235.094" y1="232.173" x2="334.248" y2="147.962"/>
								
									<line style="fill:none;stroke:#6A9994;stroke-width:5;stroke-miterlimit:10;" x1="219.221" y1="232.173" x2="318.374" y2="147.962"/>
							</g>
						</g>
					</g>
					<g>
						<g>
							<path style="fill:#BD3E00;" d="M252.425,143.245c0,1.24-1.005,2.246-2.246,2.246c-1.24,0-2.246-1.005-2.246-2.246
								s1.005-2.246,2.246-2.246C251.42,140.999,252.425,142.004,252.425,143.245z"/>
							<circle style="fill:#BD3E00;" cx="242.524" cy="143.245" r="2.246"/>
						</g>
						<g>
							<circle style="fill:#BD3E00;" cx="122.357" cy="143.245" r="2.246"/>
							<circle style="fill:#BD3E00;" cx="114.702" cy="143.245" r="2.246"/>
						</g>
						<g>
							<path style="fill:#021801;" d="M249.188,147.962c-3.794,0-111.654,0-142.022,0c-3.782,8.288-25.7,62.709-28.307,69.186
								c28.696,0,137.138,0,142.55,0c6.29,0,7.235-2.398,8.124-4.552c3.143-7.614,21.559-53.45,24.11-59.13
								C254.988,150.47,253.643,147.962,249.188,147.962z"/>
							<path style="fill:#3E736F;" d="M243.702,151.96c-3.54,0-116.407,0-138.272,0c-5.591,13.191-19.844,48.492-24.962,61.189
								c19.568,0,133.603,0,138.665,0c5.563,0,6.399-2.121,7.185-4.026c2.78-6.734,19.067-47.272,21.324-52.296
								C248.832,154.178,247.642,151.96,243.702,151.96z"/>
							<g>
								<defs>
									<path id="SVGID_00000023245442131177880700000007305048764559758002_" d="M243.702,151.96c-3.54,0-116.407,0-138.272,0
										c-5.591,13.191-19.844,48.492-24.962,61.189c19.568,0,133.603,0,138.665,0c5.563,0,6.399-2.121,7.185-4.026
										c2.78-6.734,19.067-47.272,21.324-52.296C248.832,154.178,247.642,151.96,243.702,151.96z"/>
								</defs>
								<clipPath id="SVGID_00000072272894132491503580000017825350431410863542_">
									<use xlink:href="#SVGID_00000023245442131177880700000007305048764559758002_"  style="overflow:visible;"/>
								</clipPath>
								<g style="clip-path:url(#SVGID_00000072272894132491503580000017825350431410863542_);">
									
										<line style="fill:none;stroke:#6A9994;stroke-width:10;stroke-miterlimit:10;" x1="95.092" y1="223.262" x2="194.246" y2="139.051"/>
									
										<line style="fill:none;stroke:#6A9994;stroke-width:7;stroke-miterlimit:10;" x1="75.026" y1="223.262" x2="174.179" y2="139.051"/>
								</g>
							</g>
						</g>
					</g>
					<g>
						<path style="fill:#021801;" d="M305.794,206.306c0,1.158-0.939,2.096-2.096,2.096h-15.2c-1.158,0-2.096-0.939-2.096-2.096
							v-34.855c0-1.158,0.939-2.096,2.096-2.096h15.2c1.158,0,2.096,0.939,2.096,2.096V206.306z"/>
						<circle style="fill:#021801;" cx="257.368" cy="159.145" r="3.145"/>
						<path style="fill:#021801;" d="M261.82,234.27c0,1.737-1.408,3.145-3.145,3.145s-3.145-1.408-3.145-3.145
							c0-1.737,1.408-3.145,3.145-3.145S261.82,232.533,261.82,234.27z"/>
						<path style="fill:none;stroke:#021801;stroke-width:3;stroke-miterlimit:10;" d="M257.368,159.145c0,0,31.13,0,35.061,0
							s3.669,1.396,3.669,4.802c0,3.407,0,63.158,0,64.993c0,1.834-0.262,5.33-3.145,5.33c-2.883,0-34.278,0-34.278,0"/>
					</g>
				</g>
			</g>
		</g>
	</g>
</g>
</svg>
